<?xml version="1.0" encoding="UTF-8"?>
<svg version="1.1" xmlns="http://www.w3.org/2000/svg" width="1024" height="1024">
<path d="M0 0 C337.92 0 675.84 0 1024 0 C1024 337.92 1024 675.84 1024 1024 C686.08 1024 348.16 1024 0 1024 C0 686.08 0 348.16 0 0 Z " fill="#FCFCFE" transform="translate(0,0)"/>
<path d="M0 0 C13.41613062 12.27174985 23.15809464 25.35713412 31.51123047 41.38232422 C32.21699219 42.69523437 32.21699219 42.69523437 32.93701172 44.03466797 C50.6390783 79.61178549 51.09773438 124.70050785 39.37451172 162.09716797 C34.78007874 175.71302759 28.18166218 188.90776479 19.51123047 200.38232422 C18.86154297 201.25244141 18.21185547 202.12255859 17.54248047 203.01904297 C8.01954867 215.18920767 -3.32803526 225.89827331 -15.48876953 235.38232422 C-16.6988426 236.35673016 -17.90705889 237.33344481 -19.11376953 238.31201172 C-24.71116007 242.84323263 -30.31404689 247.32002233 -36.17626953 251.50732422 C-41.15584054 255.07048392 -45.83791845 258.92097887 -50.50830078 262.87841797 C-53.35594364 265.27073655 -56.25926731 267.57557351 -59.17626953 269.88232422 C-80.5919291 287.44624645 -91.47556834 313.34468432 -94.48876953 340.38232422 C-94.67842849 342.81435656 -94.85645078 345.24731499 -95.02490234 347.6809082 C-95.11249817 348.93717514 -95.20009399 350.19344208 -95.29034424 351.48777771 C-95.38856476 352.92057823 -95.38856476 352.92057823 -95.48876953 354.38232422 C-106.44701823 354.55474446 -117.40534986 354.72115527 -128.36376953 354.88232422 C-129.57476759 354.90014009 -129.57476759 354.90014009 -130.81023026 354.91831589 C-156.7043975 355.29737644 -182.59141942 355.53293062 -208.48876953 355.38232422 C-209.12606355 318.86701088 -209.12606355 318.86701088 -205.48876953 303.38232422 C-205.32779785 302.66189941 -205.16682617 301.94147461 -205.00097656 301.19921875 C-199.61037202 277.6638704 -188.75879052 255.99799305 -173.48876953 237.38232422 C-173.03518066 236.8204541 -172.5815918 236.25858398 -172.11425781 235.6796875 C-161.51092284 222.59621291 -149.43856795 211.38982565 -136.08642578 201.15966797 C-132.15529499 198.14648823 -128.32196509 195.01857513 -124.48876953 191.88232422 C-120.01317765 188.22361138 -115.51401483 184.6055469 -110.94433594 181.06494141 C-105.03467028 176.48539934 -99.41710237 171.7468528 -93.94580078 166.64404297 C-91.78701949 164.65686591 -89.57170618 162.80085107 -87.30126953 160.94482422 C-76.42629997 151.42644595 -67.87067928 136.13121256 -66.17114258 121.68188477 C-66.01610566 118.86592337 -65.96988269 116.0774409 -65.98876953 113.25732422 C-65.99448975 112.25540039 -66.00020996 111.25347656 -66.00610352 110.22119141 C-66.34256131 96.06957277 -70.49228437 82.81235376 -80.43408203 72.33154297 C-82.37918947 70.55043478 -84.36825261 68.94894393 -86.48876953 67.38232422 C-87.05724609 66.94533203 -87.62572266 66.50833984 -88.21142578 66.05810547 C-108.53205303 51.90065748 -137.13454443 50.99477083 -160.67578125 54.90136719 C-172.54562957 57.15387562 -183.03382985 61.76904236 -192.48876953 69.38232422 C-193.96990234 70.52121094 -193.96990234 70.52121094 -195.48095703 71.68310547 C-198.65844896 74.35256086 -200.88643664 77.49183757 -203.05126953 81.00732422 C-203.43694092 81.62486572 -203.8226123 82.24240723 -204.2199707 82.87866211 C-212.91851201 97.06118587 -216.20957292 110.75276826 -217.48876953 127.38232422 C-255.43876953 127.38232422 -293.38876953 127.38232422 -332.48876953 127.38232422 C-332.48876953 81.40125009 -319.8710027 37.68844421 -287.48876953 4.38232422 C-286.9523584 3.82617432 -286.41594727 3.27002441 -285.86328125 2.69702148 C-223.58060862 -60.9419049 -100.62629392 -59.41579061 0 0 Z " fill="#000000" transform="translate(652.48876953125,276.61767578125)"/>
<path d="M0 0 C1.56663294 1.34648518 3.10971635 2.72097843 4.625 4.125 C5.32109375 4.76695312 6.0171875 5.40890625 6.734375 6.0703125 C18.62652605 18.19293159 23.44610768 34.50108593 24.0625 51.125 C23.63446728 67.61356478 16.91522665 83.18961755 5.625 95.125 C-7.68922402 107.71953624 -24.88923359 113.83025361 -43.07543945 113.59765625 C-60.80389746 112.84767665 -76.16427759 104.74725678 -88.4375 92.1875 C-100.11421382 78.47903798 -104.7034937 60.96442189 -103.58203125 43.23730469 C-101.96713792 26.76082224 -93.74280543 11.94875501 -81.375 1.125 C-57.23267729 -18.2334596 -24.77194673 -18.94770277 0 0 Z " fill="#2B5CFE" transform="translate(543.375,681.875)"/>
<path d="M0 0 C0.99 0.33 1.98 0.66 3 1 C3.061875 1.969375 3.12375 2.93875 3.1875 3.9375 C3.99077225 9.66518042 7.16517042 14.63539568 10.6640625 19.14453125 C12 21 12 21 12 23 C12.66 23 13.32 23 14 23 C15.22809298 24.4272432 16.45048041 25.86038617 17.625 27.33203125 C19.59722375 29.72447313 21.77711619 31.84062716 24 34 C13.4896682 30.34502302 7.55350755 19.87640399 2.67578125 10.4375 C0.86182159 6.5677194 0 4.37443953 0 0 Z " fill="#1D4DFE" transform="translate(443,749)"/>
<path d="M0 0 C-1 2 -1 2 -3.43359375 3 C-4.42488281 3.33 -5.41617187 3.66 -6.4375 4 C-10.62213295 5.33336865 -10.62213295 5.33336865 -14 8 C-14.78375 8.309375 -15.5675 8.61875 -16.375 8.9375 C-18.97571158 9.99016897 -20.83605732 11.23678745 -23 13 C-23.66 12.67 -24.32 12.34 -25 12 C-17.96184202 5.96977575 -9.72070672 -0.57694842 0 0 Z " fill="#1745FE" transform="translate(488,671)"/>
<path d="M0 0 C0.66 0 1.32 0 2 0 C1.71125 0.70125 1.4225 1.4025 1.125 2.125 C-0.05029444 5.01353304 -0.05029444 5.01353304 -0.9375 8.125 C-1.96070264 10.89366597 -2.75348715 12.16194403 -5 14 C-4.53411505 8.29290936 -3.06242216 4.84060277 0 0 Z " fill="#1242FE" transform="translate(449,699)"/>
<path d="M0 0 C0.66 0.33 1.32 0.66 2 1 C0.88266271 2.50571657 -0.24410035 4.00444292 -1.375 5.5 C-2.00148438 6.3353125 -2.62796875 7.170625 -3.2734375 8.03125 C-3.84320313 8.6809375 -4.41296875 9.330625 -5 10 C-5.66 10 -6.32 10 -7 10 C-7.33 10.99 -7.66 11.98 -8 13 C-8.66 12.67 -9.32 12.34 -10 12 C-8.70984254 10.37380152 -7.41782303 8.74908017 -6.125 7.125 C-5.04605469 5.76761719 -5.04605469 5.76761719 -3.9453125 4.3828125 C-2 2 -2 2 0 0 Z " fill="#0F3EFE" transform="translate(460,685)"/>
<path d="M0 0 C0.99 0.33 1.98 0.66 3 1 C3.103125 2.03125 3.20625 3.0625 3.3125 4.125 C3.99127797 7.95083945 5.11158795 10.63370025 7 14 C6.01 14.495 6.01 14.495 5 15 C4.15733289 13.25447527 3.32619962 11.5033792 2.5 9.75 C2.0359375 8.77546875 1.571875 7.8009375 1.09375 6.796875 C0 4 0 4 0 0 Z " fill="#1141FE" transform="translate(443,749)"/>
<path d="M0 0 C0.66 0.33 1.32 0.66 2 1 C-0.64 2.98 -3.28 4.96 -6 7 C-6.66 6.67 -7.32 6.34 -8 6 C-5.36 4.02 -2.72 2.04 0 0 Z " fill="#0B3AFE" transform="translate(471,677)"/>
</svg>
